<svg data-v-423bf9ae="" xmlns="http://www.w3.org/2000/svg" viewBox="0 0 366.25768163358646 60" class="font"><!----><!----><!----><g data-v-423bf9ae="" id="36c9b4de-7cfc-4c69-a806-cebaf5fa7859" fill="black" transform="matrix(5.258545206169178,0,0,5.258545206169178,-0.000007046041275771131,-15.460123683870918)"><path d="M0.03 7.56L0 7.10Q0.53 7.03 1.00 6.93Q1.47 6.83 1.70 6.77Q1.93 6.71 1.99 6.71L1.99 6.71Q2.24 6.71 2.24 6.92L2.24 6.92Q2.24 7.11 2.60 8.55Q2.97 9.98 3.33 11.31L3.33 11.31L3.71 12.64Q5.18 8.74 5.18 7.90L5.18 7.90Q5.18 7.73 5.07 7.49Q4.96 7.25 4.96 7.18L4.96 7.18Q4.96 6.93 5.99 6.93L5.99 6.93Q6.10 6.93 6.19 6.94Q6.27 6.94 6.33 6.96Q6.38 6.97 6.43 6.98Q6.48 6.99 6.51 7.01Q6.54 7.04 6.56 7.05Q6.58 7.06 6.59 7.09Q6.61 7.13 6.61 7.14Q6.61 7.15 6.62 7.20Q6.62 7.24 6.62 7.25L6.62 7.25Q6.73 7.81 7.09 9.16Q7.45 10.50 7.74 11.56L7.74 11.56L8.04 12.64Q9.52 8.72 9.52 7.87L9.52 7.87Q9.52 7.63 9.44 7.54Q9.37 7.45 9.27 7.46Q9.17 7.46 9.09 7.41Q9.02 7.36 9.02 7.21L9.02 7.21Q9.02 6.96 9.49 6.96L9.49 6.96Q9.62 6.96 9.82 6.97Q10.02 6.99 10.09 6.99L10.09 6.99Q10.33 6.99 10.70 6.96Q11.06 6.93 11.16 6.93L11.16 6.93Q11.35 6.93 11.35 7.14L11.35 7.14Q11.35 7.20 11.30 7.25Q11.26 7.31 11.12 7.50Q10.98 7.69 10.79 8.01Q10.60 8.33 10.26 9.04Q9.93 9.76 9.53 10.74L9.53 10.74Q9.32 11.24 9.13 11.73Q8.95 12.22 8.83 12.53Q8.72 12.84 8.61 13.14Q8.50 13.44 8.44 13.60Q8.37 13.76 8.29 13.92Q8.22 14.07 8.18 14.13Q8.13 14.20 8.05 14.25Q7.97 14.29 7.90 14.31Q7.83 14.32 7.70 14.32L7.70 14.32Q7.38 14.32 7.25 14.08Q7.11 13.83 6.79 12.74L6.79 12.74Q6.62 12.17 6.51 11.80L6.51 11.80Q6.37 11.35 6.13 10.48Q5.88 9.60 5.80 9.31L5.80 9.31L5.19 10.74Q5.01 11.20 4.84 11.65Q4.66 12.10 4.55 12.39Q4.44 12.68 4.34 12.97Q4.24 13.26 4.17 13.43Q4.10 13.61 4.03 13.77Q3.96 13.93 3.91 14.01Q3.85 14.10 3.80 14.17Q3.75 14.24 3.68 14.27Q3.61 14.29 3.54 14.31Q3.47 14.32 3.36 14.32L3.36 14.32Q3.04 14.32 2.91 14.09Q2.79 13.86 2.48 12.82L2.48 12.82Q2.30 12.21 2.17 11.80L2.17 11.80Q2.07 11.45 1.90 10.86Q1.74 10.26 1.62 9.86Q1.50 9.45 1.36 9.00Q1.22 8.55 1.08 8.25Q0.94 7.95 0.81 7.81L0.81 7.81Q0.76 7.74 0.70 7.70Q0.64 7.66 0.55 7.63Q0.46 7.60 0.41 7.59Q0.36 7.59 0.22 7.58Q0.08 7.57 0.03 7.56L0.03 7.56ZM11.77 10.47L11.77 10.47Q11.77 9.24 12.35 8.30L12.35 8.30Q12.73 7.71 13.66 7.23Q14.60 6.75 15.22 6.75L15.22 6.75Q16.46 6.75 17.35 7.55Q18.23 8.34 18.23 10.00L18.23 10.00Q18.23 11.72 17.61 12.66L17.61 12.66Q16.79 13.76 16.00 14.11L16.00 14.11Q15.47 14.35 14.73 14.35L14.73 14.35Q14.32 14.35 13.96 14.27Q13.59 14.20 13.18 13.94Q12.77 13.69 12.47 13.29Q12.17 12.88 11.97 12.16Q11.77 11.44 11.77 10.47ZM13.10 10.36L13.10 10.36Q13.10 12.04 13.69 12.70Q14.27 13.36 15.37 13.36L15.37 13.36Q15.79 13.36 15.99 13.29L15.99 13.29Q16.95 12.91 16.95 10.37L16.95 10.37Q16.95 9.18 16.64 8.63Q16.32 8.08 15.55 7.84L15.55 7.84Q15.16 7.74 14.80 7.74L14.80 7.74Q14.52 7.74 14.37 7.76Q14.22 7.77 13.99 7.84Q13.75 7.91 13.62 8.07Q13.50 8.23 13.36 8.51Q13.22 8.79 13.16 9.26Q13.10 9.73 13.10 10.36ZM22.86 14.11L18.94 14.11L18.94 13.64Q19.28 13.59 19.39 13.59Q19.50 13.58 19.68 13.50Q19.85 13.43 19.88 13.36Q19.91 13.30 19.96 13.09Q20.02 12.88 20.02 12.67Q20.02 12.46 20.02 12.03L20.02 12.03L20.02 11.56Q20.02 8.75 19.92 8.26Q19.82 7.77 19.25 7.73L19.25 7.73Q19.17 7.71 19.11 7.71L19.11 7.71L19.08 7.18Q19.64 7.13 20.23 6.92Q20.82 6.71 20.97 6.71L20.97 6.71Q21.15 6.71 21.22 6.87Q21.29 7.03 21.29 7.45L21.29 7.45L21.31 7.98Q22.54 6.79 23.25 6.79L23.25 6.79Q23.77 6.79 23.97 6.92Q24.16 7.04 24.16 7.38L24.16 7.38Q24.16 7.49 23.94 8.89L23.94 8.89L23.44 8.89Q23.37 7.84 22.72 7.84L22.72 7.84Q22.36 7.84 21.83 8.17Q21.31 8.50 21.31 9.04L21.31 9.04Q21.31 9.44 21.30 11.01Q21.29 12.59 21.29 12.84L21.29 12.84Q21.29 13.27 21.55 13.40Q21.80 13.54 22.72 13.66L22.72 13.66Q22.82 13.68 22.86 13.68L22.86 13.68L22.86 14.11ZM27.83 14.11L24.53 14.11L24.53 13.64Q24.64 13.62 24.82 13.59Q25.00 13.55 25.06 13.54Q25.12 13.54 25.24 13.50Q25.35 13.45 25.38 13.43Q25.41 13.40 25.48 13.31Q25.55 13.23 25.56 13.15Q25.56 13.06 25.59 12.91Q25.62 12.77 25.62 12.60Q25.62 12.43 25.62 12.18L25.62 12.18L25.62 9.59Q25.62 8.15 25.58 4.98L25.58 4.98L25.56 4.31Q25.55 3.96 25.40 3.86Q25.24 3.77 24.78 3.77L24.78 3.77L24.60 3.77L24.57 3.30Q25.17 3.23 25.66 3.14Q26.15 3.05 26.38 3.00Q26.61 2.94 26.67 2.94L26.67 2.94Q26.91 2.94 26.91 3.15L26.91 3.15Q26.94 4.30 26.94 6.03L26.94 6.03Q26.94 7.74 26.87 9.70Q26.80 11.65 26.80 12.78L26.80 12.78Q26.80 13.31 26.96 13.43Q27.12 13.55 27.83 13.64L27.83 13.64L27.83 14.11ZM28.56 10.72L28.56 10.72Q28.56 9.95 28.64 9.38Q28.73 8.81 28.83 8.49Q28.92 8.18 29.13 7.92Q29.33 7.67 29.44 7.59Q29.54 7.50 29.78 7.36L29.78 7.36L30.25 7.08Q30.86 6.72 31.65 6.72L31.65 6.72Q32.30 6.72 33.14 6.92L33.14 6.92Q33.14 6.38 33.12 5.69Q33.11 5.00 33.11 4.82L33.11 4.82Q33.11 4.37 33.10 4.19Q33.10 4.02 32.96 3.89Q32.83 3.77 32.70 3.76Q32.56 3.75 32.13 3.74L32.13 3.74L32.10 3.28Q32.70 3.22 33.20 3.14Q33.70 3.05 33.94 3.00Q34.17 2.94 34.22 2.94L34.22 2.94Q34.45 2.94 34.45 3.16L34.45 3.16Q34.45 6.17 34.41 8.94Q34.36 11.70 34.36 12.31L34.36 12.31Q34.36 12.67 34.71 13.20Q35.07 13.73 35.07 13.75L35.07 13.75Q35.07 13.79 34.95 13.84Q34.83 13.89 34.65 13.94Q34.47 14 34.44 14.01L34.44 14.01Q33.89 14.25 33.78 14.25Q33.67 14.25 33.56 14.02Q33.45 13.79 33.34 13.51Q33.24 13.23 33.17 13.16L33.17 13.16Q32.12 14.32 31.30 14.32L31.30 14.32Q31.00 14.32 30.57 14.13Q30.14 13.94 29.67 13.56Q29.20 13.17 28.88 12.43Q28.56 11.69 28.56 10.72ZM29.79 10.19L29.79 10.19Q29.79 11.65 30.34 12.38Q30.90 13.12 31.71 13.12L31.71 13.12Q32.49 13.12 33.15 12.49L33.15 12.49Q33.15 10.04 33.13 9.01Q33.11 7.98 33.11 7.92L33.11 7.92Q32.45 7.53 31.46 7.53L31.46 7.53Q31.04 7.53 30.78 7.61Q30.52 7.69 30.27 7.95Q30.02 8.20 29.90 8.76Q29.79 9.31 29.79 10.19ZM39.37 7.74L39.33 7.21Q39.90 7.15 40.48 6.94Q41.06 6.73 41.22 6.73L41.22 6.73Q41.41 6.73 41.48 6.89Q41.55 7.06 41.55 7.48L41.55 7.48L41.55 7.67Q43.16 6.76 44.18 6.76L44.18 6.76Q45.00 6.76 45.35 7.26Q45.70 7.76 45.70 8.40L45.70 8.40L45.70 13.08Q45.70 13.38 45.83 13.50Q45.96 13.61 46.44 13.64L46.44 13.64L46.44 14.11L43.58 14.11L43.58 13.64Q44.11 13.59 44.25 13.47Q44.38 13.34 44.38 13.02L44.38 13.02L44.38 8.58Q44.38 8.23 44.16 8.04Q43.95 7.85 43.72 7.82Q43.48 7.78 43.15 7.78L43.15 7.78Q42.88 7.78 42.38 7.95Q41.87 8.11 41.59 8.30L41.59 8.30Q41.58 9.13 41.55 10.03Q41.52 10.93 41.51 11.49Q41.50 12.04 41.50 12.38L41.50 12.38Q41.50 13.23 41.64 13.42Q41.78 13.61 42.32 13.64L42.32 13.64L42.32 14.11L39.38 14.11L39.38 13.64Q39.68 13.59 39.80 13.55Q39.91 13.51 40.03 13.44Q40.15 13.37 40.19 13.17Q40.22 12.96 40.24 12.73Q40.25 12.50 40.25 12.01L40.25 12.01Q40.25 11.83 40.21 10.04Q40.17 8.26 40.15 8.20L40.15 8.20Q40.14 8.13 40.12 8.07Q40.10 8.01 40.06 7.97Q40.03 7.92 40.01 7.90Q39.98 7.87 39.93 7.84Q39.87 7.81 39.84 7.80Q39.82 7.80 39.74 7.78Q39.66 7.77 39.63 7.76Q39.61 7.76 39.51 7.75Q39.41 7.74 39.37 7.74L39.37 7.74ZM47.18 10.67L47.18 10.67Q47.18 9.25 47.49 8.53L47.49 8.53Q47.71 8.01 48.57 7.40Q49.42 6.79 50.16 6.79L50.16 6.79Q50.81 6.79 51.30 6.94Q51.79 7.10 52.07 7.40Q52.35 7.70 52.52 7.99Q52.70 8.27 52.76 8.70Q52.82 9.13 52.84 9.38Q52.86 9.63 52.86 10.00L52.86 10.00Q52.86 10.12 52.86 10.18L52.86 10.18Q52.42 10.46 51.39 10.46L51.39 10.46L48.52 10.46Q48.52 10.91 48.54 11.15Q48.55 11.40 48.59 11.78Q48.64 12.17 48.75 12.38Q48.87 12.60 49.07 12.82Q49.27 13.05 49.59 13.15Q49.91 13.24 50.34 13.24L50.34 13.24Q51.56 13.24 52.57 12.25L52.57 12.25L52.88 12.57Q52.82 12.63 52.61 12.85Q52.40 13.06 52.33 13.13Q52.26 13.20 52.07 13.39Q51.87 13.58 51.77 13.65Q51.66 13.72 51.47 13.86Q51.28 14 51.15 14.06Q51.02 14.11 50.83 14.19Q50.64 14.27 50.45 14.29Q50.26 14.32 50.06 14.32L50.06 14.32Q49.22 14.32 48.63 13.99Q48.03 13.66 47.73 13.10Q47.43 12.54 47.31 11.95Q47.18 11.35 47.18 10.67ZM48.55 9.83L48.55 9.83L49.35 9.83Q51.21 9.83 51.56 9.58L51.56 9.58Q51.56 9.28 51.51 9.00Q51.45 8.72 51.31 8.41Q51.17 8.09 50.86 7.90Q50.55 7.70 50.11 7.70L50.11 7.70Q49.15 7.70 48.85 8.17Q48.55 8.64 48.55 9.83ZM53.33 7.56L53.30 7.10Q53.83 7.03 54.30 6.93Q54.77 6.83 55.00 6.77Q55.23 6.71 55.29 6.71L55.29 6.71Q55.54 6.71 55.54 6.92L55.54 6.92Q55.54 7.11 55.90 8.55Q56.27 9.98 56.63 11.31L56.63 11.31L57.01 12.64Q58.48 8.74 58.48 7.90L58.48 7.90Q58.48 7.73 58.37 7.49Q58.25 7.25 58.25 7.18L58.25 7.18Q58.25 6.93 59.29 6.93L59.29 6.93Q59.40 6.93 59.49 6.94Q59.57 6.94 59.63 6.96Q59.68 6.97 59.73 6.98Q59.78 6.99 59.81 7.01Q59.84 7.04 59.86 7.05Q59.88 7.06 59.89 7.09Q59.91 7.13 59.91 7.14Q59.91 7.15 59.91 7.20Q59.92 7.24 59.92 7.25L59.92 7.25Q60.03 7.81 60.39 9.16Q60.75 10.50 61.04 11.56L61.04 11.56L61.33 12.64Q62.82 8.72 62.82 7.87L62.82 7.87Q62.82 7.63 62.74 7.54Q62.66 7.45 62.57 7.46Q62.47 7.46 62.39 7.41Q62.31 7.36 62.31 7.21L62.31 7.21Q62.31 6.96 62.79 6.96L62.79 6.96Q62.92 6.96 63.12 6.97Q63.32 6.99 63.39 6.99L63.39 6.99Q63.63 6.99 63.99 6.96Q64.36 6.93 64.46 6.93L64.46 6.93Q64.65 6.93 64.65 7.14L64.65 7.14Q64.65 7.20 64.60 7.25Q64.55 7.31 64.41 7.50Q64.27 7.69 64.09 8.01Q63.90 8.33 63.56 9.04Q63.22 9.76 62.83 10.74L62.83 10.74Q62.62 11.24 62.43 11.73Q62.24 12.22 62.13 12.53Q62.02 12.84 61.91 13.14Q61.80 13.44 61.73 13.60Q61.67 13.76 61.59 13.92Q61.52 14.07 61.47 14.13Q61.43 14.20 61.35 14.25Q61.26 14.29 61.19 14.31Q61.12 14.32 61.00 14.32L61.00 14.32Q60.68 14.32 60.54 14.08Q60.41 13.83 60.09 12.74L60.09 12.74Q59.92 12.17 59.81 11.80L59.81 11.80Q59.67 11.35 59.42 10.48Q59.18 9.60 59.09 9.31L59.09 9.31L58.49 10.74Q58.31 11.20 58.14 11.65Q57.96 12.10 57.85 12.39Q57.74 12.68 57.64 12.97Q57.54 13.26 57.47 13.43Q57.40 13.61 57.33 13.77Q57.26 13.93 57.20 14.01Q57.15 14.10 57.10 14.17Q57.05 14.24 56.98 14.27Q56.91 14.29 56.84 14.31Q56.77 14.32 56.66 14.32L56.66 14.32Q56.34 14.32 56.21 14.09Q56.08 13.86 55.78 12.82L55.78 12.82Q55.59 12.21 55.47 11.80L55.47 11.80Q55.37 11.45 55.20 10.86Q55.03 10.26 54.91 9.86Q54.80 9.45 54.66 9.00Q54.52 8.55 54.38 8.25Q54.24 7.95 54.11 7.81L54.11 7.81Q54.05 7.74 54.00 7.70Q53.94 7.66 53.85 7.63Q53.76 7.60 53.71 7.59Q53.66 7.59 53.52 7.58Q53.38 7.57 53.33 7.56L53.33 7.56ZM65.28 9.10L65.28 9.10Q65.28 8.43 65.52 8.06L65.52 8.06Q66.02 7.25 66.47 7.01Q66.92 6.76 67.80 6.76L67.80 6.76Q68.32 6.76 68.88 7L68.88 7Q69.03 7.06 69.11 7.10Q69.19 7.15 69.27 7.30Q69.36 7.45 69.36 7.69L69.36 7.69Q69.36 7.73 69.34 7.90Q69.33 8.08 69.32 8.39Q69.31 8.69 69.31 9.06L69.31 9.06L68.80 9.06Q68.78 8.88 68.68 8.53Q68.57 8.18 68.45 7.99L68.45 7.99Q68.17 7.59 67.40 7.59L67.40 7.59Q67.02 7.59 66.77 7.69Q66.51 7.80 66.41 7.96Q66.30 8.12 66.26 8.25Q66.22 8.39 66.22 8.51L66.22 8.51Q66.22 8.96 66.57 9.23Q66.92 9.51 67.42 9.67Q67.93 9.84 68.44 10.04Q68.95 10.25 69.30 10.72Q69.65 11.19 69.65 11.90L69.65 11.90Q69.65 12.64 69.44 12.99L69.44 12.99Q69.06 13.59 68.54 14L68.54 14Q68.33 14.15 67.89 14.25Q67.44 14.35 67.21 14.35L67.21 14.35Q65.72 14.35 65.42 13.85L65.42 13.85Q65.31 13.66 65.31 13.37L65.31 13.37Q65.31 12.24 65.37 11.98Q65.44 11.72 65.69 11.72L65.69 11.72Q65.90 11.72 65.95 11.91Q66.01 12.11 66.06 12.45Q66.11 12.80 66.26 13.01L66.26 13.01Q66.58 13.45 67.42 13.45L67.42 13.45Q68.04 13.45 68.39 13.17Q68.74 12.89 68.74 12.40L68.74 12.40Q68.74 11.93 68.38 11.65Q68.03 11.37 67.52 11.21Q67.00 11.05 66.50 10.86Q66.00 10.67 65.64 10.23Q65.28 9.80 65.28 9.10Z"></path></g><!----><!----></svg>